<?xml version="1.0" standalone="no"?>
<!DOCTYPE svg PUBLIC "-//W3C//DTD SVG 20010904//EN"
 "http://www.w3.org/TR/2001/REC-SVG-20010904/DTD/svg10.dtd">
<svg version="1.0" xmlns="http://www.w3.org/2000/svg"
 width="300.000000pt" height="300.000000pt" viewBox="0 0 300.000000 300.000000"
 preserveAspectRatio="xMidYMid meet">
<metadata>
Created by potrace 1.11, written by Peter Selinger 2001-2013
</metadata>
<g transform="translate(0.000000,300.000000) scale(0.100000,-0.100000)"
fill="#000000" stroke="none">
<path d="M1115 2976 c-318 -83 -580 -249 -792 -501 -138 -165 -239 -365 -298
-590 -24 -92 -25 -112 -25 -355 0 -264 5 -314 41 -435 85 -281 253 -536 474
-721 79 -66 160 -124 173 -124 6 0 12 -4 14 -9 2 -7 158 -91 178 -96 3 -1 16
-6 30 -12 96 -40 261 -84 375 -101 53 -8 340 -7 390 1 202 33 350 81 504 163
83 44 178 105 224 143 91 77 122 106 172 159 218 234 355 530 393 847 9 74 9
293 0 360 -25 186 -91 393 -170 528 -15 26 -28 50 -28 52 0 9 -93 140 -136
192 -130 154 -280 277 -446 366 -109 58 -252 113 -348 133 -14 3 -43 9 -65 14
-22 5 -159 9 -305 9 -245 0 -272 -2 -355 -23z"/>
</g>
</svg>
